HIERARCHY
ROOT Hips
{
  OFFSET -144.176 72.7981 1367.87
  CHANNELS 6 Xposition Yposition Zposition Zrotation Xrotation Yrotation
  JOINT Spine
  {
    OFFSET 0 8 0
    CHANNELS 6 Xposition Yposition Zposition Zrotation Xrotation Yrotation
    JOINT Spine1
    {
      OFFSET 0 8 0
      CHANNELS 6 Xposition Yposition Zposition Zrotation Xrotation Yrotation
      JOINT Spine2
      {
        OFFSET 0 8 0
        CHANNELS 6 Xposition Yposition Zposition Zrotation Xrotation Yrotation
        JOINT Spine3
        {
          OFFSET 0 8 0
          CHANNELS 6 Xposition Yposition Zposition Zrotation Xrotation Yrotation
          JOINT Neck
          {
            OFFSET 0 17 0
            CHANNELS 6 Xposition Yposition Zposition Zrotation Xrotation Yrotation
            JOINT Head
            {
              OFFSET 0 10.8 0
              CHANNELS 6 Xposition Yposition Zposition Zrotation Xrotation Yrotation
              End Site
              {
                OFFSET 0 20.25 0
              }
            }
          }
          JOINT LeftShoulder
          {
            OFFSET 5 17 0
            CHANNELS 6 Xposition Yposition Zposition Zrotation Xrotation Yrotation
            JOINT LeftShoulder2
            {
              OFFSET 6.45 0 0
              CHANNELS 6 Xposition Yposition Zposition Zrotation Xrotation Yrotation
              JOINT LeftArm
              {
                OFFSET 6.45 0 0
                CHANNELS 6 Xposition Yposition Zposition Zrotation Xrotation Yrotation
                JOINT LeftForeArm
                {
                  OFFSET 0 -32.4 -2
                  CHANNELS 6 Xposition Yposition Zposition Zrotation Xrotation Yrotation
                  JOINT LeftHand
                  {
                    OFFSET 0 -25.65 2
                    CHANNELS 6 Xposition Yposition Zposition Zrotation Xrotation Yrotation
                    JOINT LeftHandThumb1
                    {
                      OFFSET -0.5 -1.5 2.65
                      CHANNELS 6 Xposition Yposition Zposition Zrotation Xrotation Yrotation
                      JOINT LeftHandThumb2
                      {
                        OFFSET 0 -3.8 3.7
                        CHANNELS 6 Xposition Yposition Zposition Zrotation Xrotation Yrotation
                        JOINT LeftHandThumb3
                        {
                          OFFSET 0 -3 2.7
                          CHANNELS 6 Xposition Yposition Zposition Zrotation Xrotation Yrotation
                          End Site
                          {
                            OFFSET 0 -2.3 1.8
                          }
                        }
                      }
                    }
                    JOINT LeftHandIndex
                    {
                      OFFSET 0 -1.9 1.6
                      CHANNELS 6 Xposition Yposition Zposition Zrotation Xrotation Yrotation
                      JOINT LeftHandIndex1
                      {
                        OFFSET 0 -8.3 1.9
                        CHANNELS 6 Xposition Yposition Zposition Zrotation Xrotation Yrotation
                        JOINT LeftHandIndex2
                        {
                          OFFSET 0 -4.5 0
                          CHANNELS 6 Xposition Yposition Zposition Zrotation Xrotation Yrotation
                          JOINT LeftHandIndex3
                          {
                            OFFSET 0 -3.4 0
                            CHANNELS 6 Xposition Yposition Zposition Zrotation Xrotation Yrotation
                            End Site
                            {
                              OFFSET 0 -2.6 0
                            }
                          }
                        }
                      }
                    }
                    JOINT LeftHandMiddle
                    {
                      OFFSET -0.25 -2.2 0.4
                      CHANNELS 6 Xposition Yposition Zposition Zrotation Xrotation Yrotation
                      JOINT LeftHandMiddle1
                      {
                        OFFSET 0 -8.3 1
                        CHANNELS 6 Xposition Yposition Zposition Zrotation Xrotation Yrotation
                        JOINT LeftHandMiddle2
                        {
                          OFFSET 0 -4.65 0
                          CHANNELS 6 Xposition Yposition Zposition Zrotation Xrotation Yrotation
                          JOINT LeftHandMiddle3
                          {
                            OFFSET 0 -3.3 0
                            CHANNELS 6 Xposition Yposition Zposition Zrotation Xrotation Yrotation
                            End Site
                            {
                              OFFSET 0 -2.7 0
                            }
                          }
                        }
                      }
                    }
                    JOINT LeftHandRing
                    {
                      OFFSET -0.5 -2.15 -0.8
                      CHANNELS 6 Xposition Yposition Zposition Zrotation Xrotation Yrotation
                      JOINT LeftHandRing1
                      {
                        OFFSET 0 -7.75 -0.2
                        CHANNELS 6 Xposition Yposition Zposition Zrotation Xrotation Yrotation
                        JOINT LeftHandRing2
                        {
                          OFFSET 0 -3.8 0
                          CHANNELS 6 Xposition Yposition Zposition Zrotation Xrotation Yrotation
                          JOINT LeftHandRing3
                          {
                            OFFSET 0 -3.4 0
                            CHANNELS 6 Xposition Yposition Zposition Zrotation Xrotation Yrotation
                            End Site
                            {
                              OFFSET 0 -2.6 0
                            }
                          }
                        }
                      }
                    }
                    JOINT LeftHandPinky
                    {
                      OFFSET -0.75 -1.75 -1.85
                      CHANNELS 6 Xposition Yposition Zposition Zrotation Xrotation Yrotation
                      JOINT LeftHandPinky1
                      {
                        OFFSET 0 -7.15 -1
                        CHANNELS 6 Xposition Yposition Zposition Zrotation Xrotation Yrotation
                        JOINT LeftHandPinky2
                        {
                          OFFSET 0 -3 0
                          CHANNELS 6 Xposition Yposition Zposition Zrotation Xrotation Yrotation
                          JOINT LeftHandPinky3
                          {
                            OFFSET 0 -2.35 0
                            CHANNELS 6 Xposition Yposition Zposition Zrotation Xrotation Yrotation
                            End Site
                            {
                              OFFSET 0 -2.1 0
                            }
                          }
                        }
                      }
                    }
                  }
                }
              }
            }
          }
          JOINT RightShoulder
          {
            OFFSET -5 17 0
            CHANNELS 6 Xposition Yposition Zposition Zrotation Xrotation Yrotation
            JOINT RightShoulder2
            {
              OFFSET -6.45 0 0
              CHANNELS 6 Xposition Yposition Zposition Zrotation Xrotation Yrotation
              JOINT RightArm
              {
                OFFSET -6.45 0 0
                CHANNELS 6 Xposition Yposition Zposition Zrotation Xrotation Yrotation
                JOINT RightForeArm
                {
                  OFFSET 0 -32.4 -2
                  CHANNELS 6 Xposition Yposition Zposition Zrotation Xrotation Yrotation
                  JOINT RightHand
                  {
                    OFFSET 0 -25.65 2
                    CHANNELS 6 Xposition Yposition Zposition Zrotation Xrotation Yrotation
                    JOINT RightHandThumb1
                    {
                      OFFSET 0.5 -1.5 2.65
                      CHANNELS 6 Xposition Yposition Zposition Zrotation Xrotation Yrotation
                      JOINT RightHandThumb2
                      {
                        OFFSET 0 -3.8 3.7
                        CHANNELS 6 Xposition Yposition Zposition Zrotation Xrotation Yrotation
                        JOINT RightHandThumb3
                        {
                          OFFSET 0 -3 2.7
                          CHANNELS 6 Xposition Yposition Zposition Zrotation Xrotation Yrotation
                          End Site
                          {
                            OFFSET 0 -2.3 1.8
                          }
                        }
                      }
                    }
                    JOINT RightHandIndex
                    {
                      OFFSET 0 -1.9 1.6
                      CHANNELS 6 Xposition Yposition Zposition Zrotation Xrotation Yrotation
                      JOINT RightHandIndex1
                      {
                        OFFSET 0 -8.3 1.9
                        CHANNELS 6 Xposition Yposition Zposition Zrotation Xrotation Yrotation
                        JOINT RightHandIndex2
                        {
                          OFFSET 0 -4.5 0
                          CHANNELS 6 Xposition Yposition Zposition Zrotation Xrotation Yrotation
                          JOINT RightHandIndex3
                          {
                            OFFSET 0 -3.4 0
                            CHANNELS 6 Xposition Yposition Zposition Zrotation Xrotation Yrotation
                            End Site
                            {
                              OFFSET 0 -2.6 0
                            }
                          }
                        }
                      }
                    }
                    JOINT RightHandMiddle
                    {
                      OFFSET 0.25 -2.2 0.4
                      CHANNELS 6 Xposition Yposition Zposition Zrotation Xrotation Yrotation
                      JOINT RightHandMiddle1
                      {
                        OFFSET 0 -8.3 1
                        CHANNELS 6 Xposition Yposition Zposition Zrotation Xrotation Yrotation
                        JOINT RightHandMiddle2
                        {
                          OFFSET 0 -4.65 0
                          CHANNELS 6 Xposition Yposition Zposition Zrotation Xrotation Yrotation
                          JOINT RightHandMiddle3
                          {
                            OFFSET 0 -3.3 0
                            CHANNELS 6 Xposition Yposition Zposition Zrotation Xrotation Yrotation
                            End Site
                            {
                              OFFSET 0 -2.7 0
                            }
                          }
                        }
                      }
                    }
                    JOINT RightHandRing
                    {
                      OFFSET 0.5 -2.15 -0.8
                      CHANNELS 6 Xposition Yposition Zposition Zrotation Xrotation Yrotation
                      JOINT RightHandRing1
                      {
                        OFFSET 0 -7.75 -0.2
                        CHANNELS 6 Xposition Yposition Zposition Zrotation Xrotation Yrotation
                        JOINT RightHandRing2
                        {
                          OFFSET 0 -3.8 0
                          CHANNELS 6 Xposition Yposition Zposition Zrotation Xrotation Yrotation
                          JOINT RightHandRing3
                          {
                            OFFSET 0 -3.4 0
                            CHANNELS 6 Xposition Yposition Zposition Zrotation Xrotation Yrotation
                            End Site
                            {
                              OFFSET 0 -2.6 0
                            }
                          }
                        }
                      }
                    }
                    JOINT RightHandPinky
                    {
                      OFFSET 0.75 -1.75 -1.85
                      CHANNELS 6 Xposition Yposition Zposition Zrotation Xrotation Yrotation
                      JOINT RightHandPinky1
                      {
                        OFFSET 0 -7.15 -1
                        CHANNELS 6 Xposition Yposition Zposition Zrotation Xrotation Yrotation
                        JOINT RightHandPinky2
                        {
                          OFFSET 0 -3 0
                          CHANNELS 6 Xposition Yposition Zposition Zrotation Xrotation Yrotation
                          JOINT RightHandPinky3
                          {
                            OFFSET 0 -2.35 0
                            CHANNELS 6 Xposition Yposition Zposition Zrotation Xrotation Yrotation
                            End Site
                            {
                              OFFSET 0 -2.1 0
                            }
                          }
                        }
                      }
                    }
                  }
                }
              }
            }
          }
        }
      }
    }
  }
  JOINT LeftUpLeg
  {
    OFFSET 8 0 0
    CHANNELS 6 Xposition Yposition Zposition Zrotation Xrotation Yrotation
    JOINT LeftLeg
    {
      OFFSET 0 -45 -1
      CHANNELS 6 Xposition Yposition Zposition Zrotation Xrotation Yrotation
      JOINT LeftFoot
      {
        OFFSET 0 -41 -2
        CHANNELS 6 Xposition Yposition Zposition Zrotation Xrotation Yrotation
        JOINT LeftToeBase
        {
          OFFSET 0 -7.5 12.5
          CHANNELS 6 Xposition Yposition Zposition Zrotation Xrotation Yrotation
          JOINT LeftFootToe
          {
            OFFSET 0 0 4
            CHANNELS 6 Xposition Yposition Zposition Zrotation Xrotation Yrotation
            End Site
            {
              OFFSET 0 0 0
            }
          }
        }
      }
    }
  }
  JOINT RightUpLeg
  {
    OFFSET -8 0 0
    CHANNELS 6 Xposition Yposition Zposition Zrotation Xrotation Yrotation
    JOINT RightLeg
    {
      OFFSET 0 -45 -1
      CHANNELS 6 Xposition Yposition Zposition Zrotation Xrotation Yrotation
      JOINT RightFoot
      {
        OFFSET 0 -41 -2
        CHANNELS 6 Xposition Yposition Zposition Zrotation Xrotation Yrotation
        JOINT RightToeBase
        {
          OFFSET 0 -7.5 12.5
          CHANNELS 6 Xposition Yposition Zposition Zrotation Xrotation Yrotation
          JOINT RightFootToe
          {
            OFFSET 0 0 4
            CHANNELS 6 Xposition Yposition Zposition Zrotation Xrotation Yrotation
            End Site
            {
              OFFSET 0 0 0
            }
          }
        }
      }
    }
  }
}
MOTION
Frames:	3
Frame Time:	0.0111111
-143.26 73.4448 1367.44 -9.57837 8.88156 -173.792 5.68434e-14 8 -2.27374e-13 9.86756 13.5794 -19.3076 -2.84217e-14 8 0 1.94448 9.06752 -0.604303 -8.52651e-14 8 -2.27374e-13 0.958768 4.54379 -0.263094 -8.52651e-14 8 2.27374e-13 0.955552 4.52889 -0.262106 0 17 -2.27374e-13 5.83401 -0.174791 -2.78612 1.13687e-13 10.8 0 13.6196 -0.85005 -6.46154 5 17 0 -2.3079 2.07449 -2.88052 6.45 0 0 -1.12487 -0.278269 -0.779668 6.45 0 -2.27374e-13 44.8566 -10.4115 10.9403 5.68434e-14 -32.4 -2 2.02534 -65.1795 -9.706 -1.13687e-13 -25.65 2 -29.3129 -8.52288 -19.2508 -0.5 -1.5 2.65 -40.3901 -6.25347 69.4168 0 -3.8 3.7 -1.50356 12.4908 -0.223003 0 -3 2.7 -0.230099 46.4103 0.235735 3.41061e-13 -1.9 1.6 -9.54166e-15 7.95139e-16 1.19271e-15 -1.13687e-13 -8.3 1.9 -1.54546 -8.32371 0.21784 0 -4.5 5.68434e-14 -62.9964 -0.00587795 0.119567 0 -3.4 0 -45.2352 -0.0822861 0.0772987 -0.25 -2.2 0.4 -9.54166e-15 7.95139e-16 1.19271e-15 0 -8.3 1 -2.36132 -1.95888 0.51056 -2.27374e-13 -4.65 2.84217e-14 -41.0905 0.0385196 0.0419501 -2.27374e-13 -3.3 2.84217e-14 -90.0002 -5.81568e-05 4.85532e-14 -0.5 -2.15 -0.8 -9.54166e-15 7.95139e-16 1.19271e-15 0 -7.75 -0.2 -3.80006 10.2796 1.31287 4.54747e-13 -3.8 5.68434e-14 -18.47 0.0453802 0.0670659 0 -3.4 0 -90.0002 0.00281162 -1.63003e-14 -0.75 -1.75 -1.85 -9.54166e-15 7.95139e-16 1.19271e-15 -1.13687e-13 -7.15 -1 -4.67624 16.876 1.88809 -4.54747e-13 -3 0 -9.54166e-15 -1.59028e-15 -7.95139e-16 0 -2.35 5.68434e-14 -9.54166e-15 1.59028e-15 -1.59028e-15 -5 17 -2.27374e-13 4.45306 -0.217472 -6.30514 -6.45 0 0 -1.00621 -0.143085 -2.29671 -6.45 0 0 -44.0699 -3.67064 29.0571 -1.13687e-13 -32.4 -2 167.851 -66.2948 176.066 0 -25.65 2 -57.7176 -1.99464 14.085 0.5 -1.5 2.65 23.8583 73.8736 -65.3233 0 -3.8 3.7 1.39731 -5.45065 0.024294 0 -3 2.7 0.188799 56.4436 -0.146212 0 -1.9 1.6 -6.62086e-32 1.59028e-15 2.38542e-15 -1.13687e-13 -8.3 1.9 25.4804 13.735 -3.39977 -1.13687e-13 -4.5 1.7053e-13 -4.17088e-08 0.00216219 0.00110524 9.9476e-14 -3.4 -1.13687e-13 -1.06901e-07 0.00469707 0.001304 0.25 -2.2 0.4 -6.62086e-32 1.59028e-15 2.38542e-15 -2.27374e-13 -8.3 1 25.3126 9.78582 -2.64679 1.20792e-13 -4.65 -5.68434e-14 9.29554 0.0525895 0.176739 1.13687e-13 -3.3 0 7.95319 0.0602853 0.131488 0.5 -2.15 -0.8 -6.62086e-32 1.59028e-15 2.38542e-15 0 -7.75 -0.2 26.4956 8.29737 -2.7261 1.27898e-13 -3.8 -1.7053e-13 27.5716 0.0355033 0.0602998 -1.13687e-13 -3.4 -5.68434e-14 20.5975 0.0330872 0.0252283 0.75 -1.75 -1.85 -6.62086e-32 1.59028e-15 2.38542e-15 1.13687e-13 -7.15 -1 27.6878 3.77875 -1.90718 -9.9476e-14 -3 1.98952e-13 26.3468 0.0945655 0.146431 0 -2.35 0 19.775 0.0858395 0.0658093 8 0 0 -14.5817 -46.4265 -15.6017 4.26326e-14 -45 -1 -6.72605 61.2323 12.2269 2.84217e-14 -41 -2 -3.47319 -1.40501 24.6903 -1.13687e-13 -7.5 12.5 3.97569e-16 7.95139e-16 3.18055e-15 0 0 4 -3.11681 -0.386592 36.3385 -8 0 0 -17.587 -40.309 -16.0354 0 -45 -1 -0.376966 72.1618 0.544334 1.42109e-13 -41 -2 -3.06985 4.29965 24.0773 0 -7.5 12.5 9.54733e-16 -15.381 6.59741e-15 0 0 4 12.7254 13.8863 0.333681 
-143.341 73.4546 1367.45 -9.38959 8.77574 -173.809 0 8 0 9.88069 13.4838 -19.2801 2.84217e-14 8 0 1.90475 9.03148 -0.572257 0 8 -2.27374e-13 0.939621 4.52548 -0.248039 -8.52651e-14 8 0 0.93651 4.51077 -0.247109 0 17 -2.27374e-13 5.69857 -0.199039 -2.66047 5.68434e-14 10.8 0 13.3015 -0.876755 -6.16628 5 17 0 -2.37008 2.06118 -2.85921 6.45 1.13687e-13 0 -1.12428 -0.267267 -0.780091 6.45 0 2.27374e-13 44.6861 -9.57205 10.7334 -5.68434e-14 -32.4 -2 0.511736 -66.873 -12.4201 -1.13687e-13 -25.65 2 -24.4908 -11.0976 -19.0307 -0.5 -1.5 2.65 -40.6022 -6.9971 68.0224 0 -3.8 3.7 -1.59723 10.7646 -0.249319 0 -3 2.7 -0.402014 45.4104 0.0487743 1.13687e-13 -1.9 1.6 -1.27222e-14 2.38542e-15 -0 -1.13687e-13 -8.3 1.9 -1.53044 -7.09764 0.291526 1.13687e-13 -4.5 2.84217e-14 -64.3414 0.11127 0.377633 0 -3.4 2.84217e-14 -47.1167 -0.235568 0.367432 -0.25 -2.2 0.4 -1.27222e-14 2.38542e-15 -0 0 -8.3 1 -2.60383 -0.432183 0.622691 0 -4.65 -2.84217e-14 -42.6886 0.112563 0.143043 0 -3.3 0 -90.0002 -5.81568e-05 1.62283e-13 -0.5 -2.15 -0.8 -1.27222e-14 2.38542e-15 -0 0 -7.75 -0.2 -4.55068 12.2984 1.58465 2.27374e-13 -3.8 0 -21.2714 0.114491 0.104402 0 -3.4 -5.68434e-14 -90.0002 0.00281162 -5.96354e-16 -0.75 -1.75 -1.85 -1.27222e-14 2.38542e-15 -0 1.13687e-13 -7.15 -1 -5.83808 19.119 2.34391 -1.13687e-13 -3 0 -1.27222e-14 1.59028e-15 0.000450088 1.13687e-13 -2.35 5.68434e-14 -1.59028e-14 2.38542e-15 0.000286701 -5 17 -2.27374e-13 4.37734 -0.237776 -6.15493 -6.45 5.68434e-14 -2.27374e-13 -0.987859 -0.12735 -2.3177 -6.45 5.68434e-14 0 -44.425 -3.10154 28.0218 0 -32.4 -2 167.605 -66.5087 175.544 0 -25.65 2 -57.1255 -1.23452 13.3768 0.5 -1.5 2.65 25.202 73.5645 -67.6717 0 -3.8 3.7 1.25366 -4.84252 0.0107512 0 -3 2.7 0.171629 56.4588 -0.132824 0 -1.9 1.6 0 3.18055e-15 -0 -1.13687e-13 -8.3 1.9 25.2909 13.8604 -3.40701 -1.13687e-13 -4.5 5.68434e-14 -4.58982e-08 0.00256256 0.00102623 1.13687e-13 -3.4 -5.68434e-14 -9.73741e-08 0.00454743 0.00122687 0.25 -2.2 0.4 0 3.18055e-15 -0 -2.27374e-13 -8.3 1 25.0269 10.1979 -2.71153 9.9476e-14 -4.65 -1.7053e-13 7.08604 0.0274898 0.145733 1.13687e-13 -3.3 0 6.20152 0.0358702 0.115351 0.5 -2.15 -0.8 0 3.18055e-15 -0 0 -7.75 -0.2 25.9635 8.12705 -2.62927 1.20792e-13 -3.8 -1.13687e-13 25.9581 0.0225167 0.0561062 0 -3.4 -1.13687e-13 19.6121 0.024615 0.0258282 0.75 -1.75 -1.85 0 3.18055e-15 -0 0 -7.15 -1 26.9604 3.92895 -1.88659 -1.13687e-13 -3 2.84217e-13 23.7948 0.0687463 0.141926 0 -2.35 -2.84217e-14 18.1719 0.0693586 0.071054 8 0 0 -14.5964 -46.4242 -15.6291 2.84217e-14 -45 -1 -6.69028 61.2206 12.1654 -2.84217e-14 -41 -2 -3.46892 -1.4099 24.6645 0 -7.5 12.5 -3.97569e-16 -1.19271e-15 -3.18055e-15 0 0 4 -3.09001 -0.393579 36.3375 -8 0 2.27374e-13 -17.5798 -40.2897 -16.0306 0 -45 -1 -0.317159 72.1303 0.458251 1.13687e-13 -41 -2 -3.03987 4.28257 24.1269 0 -7.5 12.5 -2.02848e-15 -15.4056 -1.64955e-15 0 5.68434e-14 4 12.7278 13.8998 0.319726 
-143.43 73.4667 1367.45 -9.20426 8.67968 -173.83 0 8 0 9.8863 13.3883 -19.2497 -5.68434e-14 8 2.27374e-13 1.85878 8.99409 -0.538066 -2.84217e-14 8 0 0.9174 4.50648 -0.232031 -2.84217e-14 8 0 0.914389 4.49199 -0.231167 -2.84217e-14 17 -4.54747e-13 5.55905 -0.212278 -2.5359 5.68434e-14 10.8 0 12.9747 -0.878647 -5.87532 5 17 0 -2.43716 2.05267 -2.83578 6.45 0 -2.27374e-13 -1.12457 -0.254552 -0.780701 6.45 -1.13687e-13 0 44.5577 -8.9263 10.3107 0 -32.4 -2 -0.809725 -68.1605 -14.991 -1.7053e-13 -25.65 2 -19.5063 -13.553 -19.0425 -0.5 -1.5 2.65 -40.8263 -8.30286 66.1864 0 -3.8 3.7 -1.54592 9.29028 -0.210241 1.13687e-13 -3 2.7 -0.604575 44.0658 -0.0618386 2.27374e-13 -1.9 1.6 -2.22639e-14 3.18055e-15 -0 -2.27374e-13 -8.3 1.9 -1.78926 -5.72125 0.303067 -1.13687e-13 -4.5 5.68434e-14 -66.8678 0.18756 0.685659 0 -3.4 -2.84217e-14 -51.1164 -0.54713 0.685 -0.25 -2.2 0.4 -2.22639e-14 3.18055e-15 -0 0 -8.3 1 -3.07547 1.13058 0.685905 0 -4.65 -2.84217e-14 -44.9877 0.191871 0.273663 0 -3.3 2.84217e-14 -90.0002 -5.81568e-05 4.60621e-14 -0.5 -2.15 -0.8 -2.22639e-14 3.18055e-15 -0 -1.13687e-13 -7.75 -0.2 -5.43059 14.1451 1.81941 2.27374e-13 -3.8 -2.84217e-14 -24.7937 0.210742 0.158362 0 -3.4 2.84217e-14 -90.0002 0.00281162 3.29983e-14 -0.75 -1.75 -1.85 -2.22639e-14 3.18055e-15 -0 -1.13687e-13 -7.15 -1 -7.01363 21.1126 2.75643 -1.13687e-13 -3 -5.68434e-14 -9.54168e-15 7.95139e-16 0.000943295 0 -2.35 5.68434e-14 9.54167e-15 -7.95139e-16 0.000752221 -5 17 -2.27374e-13 4.31318 -0.248411 -5.99149 -6.45 0 -2.27374e-13 -0.976692 -0.117145 -2.33907 -6.45 0 0 -44.6756 -2.60798 27.0403 0 -32.4 -2 167.394 -66.5997 175.166 0 -25.65 2 -56.5738 -0.460002 12.926 0.5 -1.5 2.65 25.5215 72.6263 -68.4896 2.27374e-13 -3.8 3.7 1.15469 -4.36637 -0.00188972 0 -3 2.7 0.16276 56.4906 -0.123072 0 -1.9 1.6 3.18055e-15 7.95139e-15 -0 0 -8.3 1.9 25.1753 14.0313 -3.43513 -9.9476e-14 -4.5 5.68434e-14 -4.94381e-08 0.00299235 0.000946612 9.9476e-14 -3.4 -1.7053e-13 -8.75993e-08 0.00439332 0.00114243 0.25 -2.2 0.4 3.18055e-15 7.95139e-15 -0 0 -8.3 1 24.8341 10.59 -2.78112 9.9476e-14 -4.65 -1.7053e-13 5.03631 0.0076519 0.098362 1.13687e-13 -3.3 -5.68434e-14 4.5445 0.0139041 0.0833942 0.5 -2.15 -0.8 3.18055e-15 7.95139e-15 -0 0 -7.75 -0.2 25.5484 7.98582 -2.55581 1.13687e-13 -3.8 -5.68434e-14 24.4591 0.0125962 0.0481027 0 -3.4 -1.13687e-13 18.6912 0.0170256 0.0256408 0.75 -1.75 -1.85 3.18055e-15 7.95139e-15 -0 0 -7.15 -1 26.3896 4.08163 -1.88225 -9.9476e-14 -3 1.7053e-13 21.5088 0.0397609 0.115909 0 -2.35 2.84217e-14 16.7322 0.0463028 0.0628105 8 -5.68434e-14 2.27374e-13 -14.6112 -46.422 -15.6565 2.84217e-14 -45 -1 -6.64403 61.2093 12.0848 0 -41 -2 -3.44906 -1.41747 24.6132 0 -7.5 12.5 5.96354e-16 3.97569e-16 3.18055e-15 0 1.42109e-14 4 -3.06106 -0.398629 36.3403 -8 0 2.27374e-13 -17.5727 -40.2704 -16.0259 2.84217e-14 -45 -1 -0.247902 72.0971 0.358368 1.42109e-13 -41 -2 -3.0068 4.27327 24.1811 0 -7.5 12.5 -1.86407e-15 -15.4265 4.94914e-15 0 5.68434e-14 4 12.7304 13.9066 0.308465 
